<svg xmlns="http://www.w3.org/2000/svg" viewBox="0 0 512 512" width="512" height="512">
  <defs>
    <radialGradient id="eggBody" cx="35%" cy="30%" r="80%">
      <stop offset="0%" stop-color="#FFE066"/>
      <stop offset="40%" stop-color="#FFD93D"/>
      <stop offset="100%" stop-color="#F5B800"/>
    </radialGradient>
    <radialGradient id="bgGrad" cx="50%" cy="50%" r="70%">
      <stop offset="0%" stop-color="#B8E0F6"/>
      <stop offset="100%" stop-color="#87CEEB"/>
    </radialGradient>
    <filter id="softShadow" x="-20%" y="-20%" width="140%" height="140%">
      <feDropShadow dx="0" dy="8" stdDeviation="6" flood-color="#000000" flood-opacity="0.25"/>
    </filter>
  </defs>

  <rect width="512" height="512" fill="url(#bgGrad)"/>

  <g transform="translate(256 280)" filter="url(#softShadow)">
    <ellipse cx="0" cy="200" rx="110" ry="14" fill="#000000" opacity="0.15"/>

    <path d="M -150 -160
             Q -150 -240, 0 -240
             Q 150 -240, 150 -160
             Q 168 0, 120 160
             Q 0 220, -120 160
             Q -168 0, -150 -160 Z"
          fill="url(#eggBody)"
          stroke="#E5B800" stroke-width="3"/>

    <ellipse cx="-50" cy="-110" rx="42" ry="28" fill="#FFFFFF" opacity="0.55"/>

    <ellipse cx="-44" cy="-28" rx="22" ry="26" fill="#2A2A2A"/>
    <ellipse cx="44"  cy="-28" rx="22" ry="26" fill="#2A2A2A"/>
    <circle  cx="-36" cy="-38" r="7"  fill="#FFFFFF"/>
    <circle  cx="52"  cy="-38" r="7"  fill="#FFFFFF"/>

    <path d="M -22 30 Q 0 56, 22 30"
          stroke="#2A2A2A" stroke-width="6" fill="none" stroke-linecap="round"/>

    <g fill="#F5B800">
      <ellipse cx="-32" cy="180" rx="28" ry="10"/>
      <ellipse cx="32"  cy="180" rx="28" ry="10"/>
    </g>
  </g>
</svg>
